<?xml version="1.0" encoding="UTF-8"?>
<svg width="450px" height="450px" viewBox="0 0 450 450" version="1.1" xmlns="http://www.w3.org/2000/svg" xmlns:xlink="http://www.w3.org/1999/xlink">
    <title>Combined Shape</title>
    <g id="claudity" stroke="none" stroke-width="1" fill="none" fill-rule="evenodd">
        <g id="og" transform="translate(-375, -90)" fill="#00FF88">
            <path d="M487.5,104.0625 L487.5,90 L515.625,90 L515.625,118.125 L529.6875,118.125 L529.6875,146.25 L543.75,146.25 L543.75,174.375 L557.8125,174.375 L557.8125,202.5 L571.875,202.5 L571.875,216.5625 L585.9375,216.5625 L585.9375,244.6875 L600,244.6875 L600,174.375 L614.0625,174.375 L614.0625,118.125 L628.125,118.125 L628.125,104.0625 L656.25,104.0625 L656.25,174.375 L642.1875,174.375 L642.1875,216.5625 L628.125,216.5625 L628.125,244.6875 L642.1875,244.6875 L642.1875,230.625 L656.25,230.625 L656.25,216.5625 L670.3125,216.5625 L670.3125,202.5 L684.375,202.5 L684.375,188.4375 L698.4375,188.4375 L698.4375,174.375 L712.5,174.375 L712.5,160.3125 L726.5625,160.3125 L726.5625,146.25 L754.6875,146.25 L754.6875,160.3125 L768.75,160.3125 L768.75,188.4375 L754.6875,188.4375 L754.6875,202.5 L740.625,202.5 L740.625,216.5625 L726.5625,216.5625 L726.5625,230.625 L712.5,230.625 L712.5,244.6875 L698.4375,244.6875 L698.4375,258.75 L684.375,258.75 L684.375,272.8125 L670.3125,272.8125 L670.3125,286.875 L712.5,286.875 L712.5,272.8125 L754.6875,272.8125 L754.6875,258.75 L810.9375,258.75 L810.9375,272.8125 L825,272.8125 L825,300.9375 L726.5625,300.9375 L726.5625,315 L684.375,315 L684.375,329.0625 L782.8125,329.0625 L782.8125,343.125 L810.9375,343.125 L810.9375,357.1875 L825,357.1875 L825,385.3125 L754.6875,385.3125 L754.6875,371.25 L726.5625,371.25 L726.5625,357.1875 L684.375,357.1875 L684.375,371.25 L698.4375,371.25 L698.4375,385.3125 L726.5625,385.3125 L726.562,399.375 L740.625,399.375 L740.625,413.437 L754.6875,413.4375 L754.687,427.5 L768.75,427.5 L768.75,455.625 L740.625,455.625 L740.625,441.562 L726.5625,441.5625 L726.562,427.5 L712.5,427.5 L712.5,413.437 L698.4375,413.4375 L698.4375,399.375 L684.375,399.375 L684.375,385.3125 L670.3125,385.3125 L670.3125,413.4375 L684.375,413.4375 L684.375,441.5625 L698.4375,441.5625 L698.4375,455.625 L712.5,455.625 L712.5,483.75 L726.5625,483.75 L726.5625,511.875 L698.4375,511.875 L698.4375,497.8125 L684.375,497.8125 L684.375,469.6875 L670.3125,469.6875 L670.3125,455.625 L656.25,455.625 L656.25,427.5 L642.1875,427.5 L642.1875,413.4375 L628.125,413.4375 L628.125,540 L600,540 L600,525.9375 L585.9375,525.9375 L585.9375,455.625 L600,455.625 L600,413.4375 L571.875,413.4375 L571.875,427.5 L557.8125,427.5 L557.8125,441.5625 L543.75,441.5625 L543.75,455.625 L529.6875,455.625 L529.6875,469.6875 L515.625,469.6875 L515.625,483.75 L473.4375,483.75 L473.4375,455.625 L487.5,455.625 L487.5,441.5625 L501.5625,441.5625 L501.5625,427.5 L515.625,427.5 L515.625,413.4375 L529.6875,413.4375 L529.6875,399.375 L543.75,399.375 L543.75,371.25 L529.6875,371.25 L529.6875,385.3125 L501.5625,385.3125 L501.5625,399.375 L473.4375,399.375 L473.4375,413.4375 L459.375,413.4375 L459.375,427.5 L445.3125,427.5 L445.3125,441.5625 L403.125,441.5625 L403.125,413.4375 L417.1875,413.4375 L417.1875,399.375 L445.3125,399.375 L445.3125,385.3125 L459.375,385.3125 L459.375,371.25 L487.5,371.25 L487.5,357.1875 L515.625,357.1875 L515.625,343.125 L529.6875,343.125 L529.6875,329.0625 L389.0625,329.0625 L389.0625,315 L375,315 L375,286.875 L487.5,286.875 L487.5,300.9375 L529.6875,300.9375 L529.6875,272.8125 L515.625,272.8125 L515.625,258.75 L487.5,258.75 L487.5,244.6875 L459.375,244.6875 L459.375,230.625 L431.25,230.625 L431.25,216.5625 L417.1875,216.5625 L417.1875,188.4375 L431.25,188.4375 L431.25,174.375 L459.375,174.375 L459.375,188.4375 L473.4375,188.4375 L473.4375,202.5 L487.5,202.5 L487.5,216.5625 L501.5625,216.5625 L501.5625,230.625 L515.625,230.625 L515.625,244.6875 L543.75,244.6875 L543.75,230.625 L529.6875,230.625 L529.6875,202.5 L515.625,202.5 L515.625,174.375 L501.5625,174.375 L501.5625,146.25 L487.5,146.25 L487.5,132.1875 L473.4375,132.1875 L473.4375,104.0625 L487.5,104.0625 Z" id="Combined-Shape"></path>
        </g>
    </g>
</svg>